<?xml version="1.0" encoding="UTF-8" standalone="no"?><!DOCTYPE svg PUBLIC "-//W3C//DTD SVG 1.1//EN" "http://www.w3.org/Graphics/SVG/1.1/DTD/svg11.dtd"><svg width="100%" height="100%" viewBox="0 0 1689 455" version="1.1" xmlns="http://www.w3.org/2000/svg" xmlns:xlink="http://www.w3.org/1999/xlink" xml:space="preserve" xmlns:serif="http://www.serif.com/" style="fill-rule:evenodd;clip-rule:evenodd;stroke-linejoin:round;stroke-miterlimit:1.41421;"><g id="pynash-wordmark" serif:id="pynash wordmark" transform="matrix(1,0,0,1,-155.58,-772.5)"><rect x="155.58" y="772.5" width="1688.84" height="455" style="fill:none;"/><clipPath id="_clip1"><rect x="155.58" y="772.5" width="1688.84" height="455"/></clipPath><g clip-path="url(#_clip1)"><g transform="matrix(1,0,0,1,-5.39265,374.083)"><path d="M161.552,853.917L258.552,853.917L277.052,743.917C285.052,751.917 306.052,766.917 340.052,766.917C428.052,766.917 490.052,695.917 490.052,605.417C490.052,537.417 447.552,489.917 380.052,489.917C345.552,489.917 320.052,503.417 308.552,513.417L311.552,496.417L221.552,496.417L161.552,853.917ZM292.052,639.417C292.052,604.917 314.052,573.417 351.052,573.417C377.052,573.417 392.052,590.917 392.052,617.417C392.052,654.917 368.552,683.917 332.552,683.917C307.552,683.917 292.052,667.417 292.052,639.417Z" style="fill-rule:nonzero;"/><path d="M601.552,849.917L790.552,496.417L688.052,496.417L625.052,632.917L609.552,496.417L507.052,496.417L562.552,750.417L510.552,849.917L601.552,849.917Z" style="fill-rule:nonzero;"/><path d="M977.552,489.917C945.052,489.917 918.052,507.917 906.052,521.417L910.052,496.417L815.552,496.417L771.552,760.417L868.552,760.417L895.052,603.417C897.552,588.417 908.552,575.417 927.552,575.417C943.552,575.417 954.052,584.917 950.552,604.917L924.552,760.417L1021.55,760.417L1050.05,590.417C1060.05,529.417 1040.05,489.917 977.552,489.917Z" style="fill-rule:nonzero;"/><path d="M1061.05,692.417C1061.05,741.917 1098.55,766.917 1141.55,766.917C1167.05,766.917 1190.55,760.917 1207.55,745.917L1210.55,760.417L1297.55,760.417L1324.05,603.417C1334.55,541.917 1311.55,489.917 1223.05,489.917C1183.55,489.917 1135.05,503.917 1103.05,523.417L1131.05,586.417C1154.05,576.917 1175.05,571.417 1196.55,571.417C1220.55,571.417 1230.55,581.917 1228.55,592.417L1227.05,600.417C1217.55,594.917 1200.05,590.417 1182.05,590.417C1110.55,590.417 1061.05,631.917 1061.05,692.417ZM1160.05,677.417C1160.05,662.417 1175.55,653.917 1191.55,653.917C1205.55,653.917 1216.55,660.417 1216.55,672.417C1216.55,686.917 1200.05,694.917 1185.05,694.917C1172.05,694.917 1160.05,689.417 1160.05,677.417Z" style="fill-rule:nonzero;"/><path d="M1327.55,724.917C1345.05,744.917 1384.55,766.917 1430.55,766.917C1502.55,766.917 1556.55,733.917 1556.55,669.917C1556.55,595.917 1452.05,599.417 1452.05,575.917C1452.05,570.917 1457.05,565.917 1468.55,565.917C1485.55,565.917 1496.55,574.417 1505.05,582.917L1575.55,533.417C1560.55,511.917 1530.55,489.917 1481.55,489.917C1414.55,489.917 1359.55,528.417 1359.55,588.417C1359.55,666.417 1462.55,660.417 1462.55,679.917C1462.55,685.417 1457.05,690.417 1443.05,690.417C1421.55,690.417 1403.05,682.417 1389.55,671.917L1327.55,724.917Z" style="fill-rule:nonzero;"/><path d="M1773.05,489.917C1743.05,489.917 1718.55,505.417 1706.05,518.417L1726.05,398.917L1629.05,398.917L1568.55,760.417L1665.55,760.417L1692.05,603.417C1694.55,588.417 1706.05,575.417 1725.05,575.417C1741.05,575.417 1752.05,584.917 1748.55,604.917L1722.55,760.417L1819.55,760.417L1848.05,589.917C1858.05,528.917 1836.55,489.917 1773.05,489.917Z" style="fill-rule:nonzero;"/></g></g></g></svg>